#!OML:ASF H:\Male1\Project 1\Capture day 1\Session 1\Male1.ASF
:FULLY-SPECIFIED
:DEGREES
137
root 10.1098 15.1503 -0.661167 176.259 -94.1999 -177.183
lowerback 9.84592 -0.617132 1.70879
upperback 2.66859 -0.709954 0.630597
thorax -2.75716 -0.393673 -0.221605
lowerneck -9.49822 1.92731 6.4315
upperneck 1.03068 2.11922 -8.53115
head 2.23753 0.826766 -3.91198
rclavicle -2.00773e-014 8.34896e-015
rhumerus -46.0365 4.67259 -79.916
rradius 52.26
rwrist -28.2762
rhand -29.088 5.43837
rfingers 7.12502
rthumb -2.43672 -24.5275
lclavicle -2.00773e-014 8.34896e-015
lhumerus -55.9462 -9.33612 93.0681
lradius 28.3633
lwrist -0.0800623
lhand 7.87815 7.21331
lfingers 7.12502
lthumb 33.1112 34.19
rfemur -14.396 17.0419 23.1793
rtibia 36.4086
rfoot -30.0364 -23.3651
rtoes -32.1168
lfemur -13.0201 -17.7526 -21.1698
ltibia 38.568
lfoot -26.1716 13.0117
ltoes -16.2805
138
root 10.0965 15.1456 -0.661711 182.12 -95.0082 -183.116
lowerback 9.73649 -0.717654 2.07887
upperback 2.61486 -0.802091 0.794069
thorax -2.75624 -0.440514 -0.250233
lowerneck -10.4647 1.85765 6.19065
upperneck 1.87241 2.05362 -8.69263
head 2.41303 0.745769 -3.537
rclavicle 3.03147e-015 -7.95139e-016
rhumerus -45.3799 4.47496 -79.8139
rradius 51.9147
rwrist -28.0202
rhand -29.125 5.12795
rfingers 7.12502
rthumb -2.47243 -24.8375
lclavicle 3.03147e-015 -7.95139e-016
lhumerus -55.3875 -8.97532 93.2634
lradius 27.5952
lwrist -1.27031
lhand 7.32913 7.17756
lfingers 7.12502
lthumb 32.5889 34.2636
rfemur -13.9072 17.4972 23.8138
rtibia 35.9137
rfoot -30.2706 -23.4234
rtoes -31.0885
lfemur -12.9526 -18.3556 -20.7102
ltibia 38.408
lfoot -25.7753 13.5792
ltoes -18.5788
139
root 10.0883 15.1412 -0.663464 186.823 -95.6298 -187.92
lowerback 9.82134 -0.718379 2.41418
upperback 2.49385 -0.757489 0.963842
thorax -2.92929 -0.421175 -0.26605
lowerneck -10.7803 1.59599 5.90694
upperneck 2.1288 1.72911 -8.46234
head 2.51019 0.581256 -3.43717
rclavicle -3.52843e-015 8.34896e-015
rhumerus -44.7951 4.25283 -79.7465
rradius 51.2877
rwrist -27.4874
rhand -29.2709 4.53882
rfingers 7.12502
rthumb -2.61337 -25.4249
lclavicle -3.52843e-015 8.34896e-015
lhumerus -54.5659 -8.06007 92.8203
lradius 26.6185
lwrist -3.15678
lhand 4.1934 6.6487
lfingers 7.12502
lthumb 29.6003 34.3076
rfemur -13.5681 17.5715 24.4263
rtibia 35.5313
rfoot -30.1312 -23.3026
rtoes -30.3132
lfemur -12.9667 -18.8216 -20.1421
ltibia 38.3967
lfoot -25.5965 13.6519
ltoes -18.4148
140
root 10.0785 15.1434 -0.661557 187.657 -96.2267 -188.821
lowerback 9.90864 -0.678632 2.49324
upperback 2.33468 -0.684266 1.01445
thorax -3.14139 -0.386312 -0.264649
lowerneck -11.1191 1.60269 6.21641
upperneck 2.24661 1.70497 -8.83709
head 2.60577 0.548419 -3.60495
rclavicle -1.82385e-014 -2.78299e-015
rhumerus -44.3261 3.98137 -79.7045
rradius 50.5613
rwrist -26.9935
rhand -29.4918 3.9342
rfingers 7.12502
rthumb -2.82666 -26.0268
lclavicle -1.82385e-014 -2.78299e-015
lhumerus -53.7003 -6.94099 92.0417
lradius 25.6799
lwrist -4.89495
lhand 1.85837 7.32979
lfingers 7.12502
lthumb 27.3691 35.3624
rfemur -13.3531 17.2595 24.6061
rtibia 35.3266
rfoot -29.8288 -23.3602
rtoes -29.9882
lfemur -13.0248 -19.2206 -19.917
ltibia 38.4166
lfoot -25.6958 13.2737
ltoes -17.0368
141
root 10.0668 15.1449 -0.658875 186.484 -96.7522 -187.713
lowerback 9.87326 -0.62552 2.34639
upperback 2.28571 -0.62698 0.98862
thorax -3.17034 -0.356299 -0.216135
lowerneck -11.1741 1.27567 6.03872
upperneck 2.33196 1.28549 -8.67923
head 2.60495 0.342962 -3.551
rclavicle -1.23743e-014 8.74653e-015
rhumerus -43.7316 3.65955 -79.7087
rradius 49.7483
rwrist -26.5948
rhand -29.7435 3.59876
rfingers 7.12502
rthumb -3.06976 -26.3589
lclavicle -1.23743e-014 8.74653e-015
lhumerus -52.7023 -5.53951 90.9437
lradius 25.0045
lwrist -6.19464
lhand -2.59472 6.56164
lfingers 7.12502
lthumb 23.1029 35.1966
rfemur -13.2026 16.7978 24.5198
rtibia 35.2767
rfoot -29.6457 -23.3436
rtoes -29.6962
lfemur -13.0439 -19.3649 -19.9583
ltibia 38.4098
lfoot -25.6767 12.9743
ltoes -17.1614
